<svg width="14" height="13" viewBox="0 0 14 13" fill="none" xmlns="http://www.w3.org/2000/svg">
<path d="M12.3333 10.5V3.16667C12.3333 1.90959 12.3333 1.28105 11.9428 0.890524C11.5523 0.5 10.9237 0.5 9.66667 0.5H4.33333C3.07625 0.5 2.44772 0.5 2.05719 0.890524C1.66667 1.28105 1.66667 1.90959 1.66667 3.16667V10.5M12.3333 10.5H1.66667M12.3333 10.5H9.66667V11.1667C9.66667 11.903 10.2636 12.5 11 12.5C11.7364 12.5 12.3333 11.903 12.3333 11.1667V10.5ZM1.66667 10.5H4.33333V11.1667C4.33333 11.903 3.73638 12.5 3 12.5C2.26362 12.5 1.66667 11.903 1.66667 11.1667V10.5ZM2.33333 6.5H11.6667M5 8.5C5 8.86819 4.70152 9.16667 4.33333 9.16667C3.96514 9.16667 3.66667 8.86819 3.66667 8.5C3.66667 8.13181 3.96514 7.83333 4.33333 7.83333C4.70152 7.83333 5 8.13181 5 8.5ZM10.3333 8.5C10.3333 8.86819 10.0349 9.16667 9.66667 9.16667C9.29848 9.16667 9 8.86819 9 8.5C9 8.13181 9.29848 7.83333 9.66667 7.83333C10.0349 7.83333 10.3333 8.13181 10.3333 8.5ZM12.6667 7.16667C12.4826 7.16667 12.3333 7.01743 12.3333 6.83333V4.16667C12.3333 3.98257 12.4826 3.83333 12.6667 3.83333C12.8508 3.83333 13 3.98257 13 4.16667V6.83333C13 7.01743 12.8508 7.16667 12.6667 7.16667ZM1.33333 7.16667C1.14924 7.16667 1 7.01743 1 6.83333V4.16667C1 3.98257 1.14924 3.83333 1.33333 3.83333C1.51743 3.83333 1.66667 3.98257 1.66667 4.16667V6.83333C1.66667 7.01743 1.51743 7.16667 1.33333 7.16667Z" stroke="#1DA1F2" stroke-linecap="round"/>
</svg>
