<svg width="16" height="17" viewBox="0 0 16 17" fill="none" xmlns="http://www.w3.org/2000/svg">
<path d="M5.70705 8L1.70705 4L1 4.70705L4.29295 8H1V8.5C1 10.3565 1.7375 12.137 3.05025 13.4497C4.36301 14.7625 6.14348 15.5 8 15.5C9.85652 15.5 11.637 14.7625 12.9497 13.4497C14.2625 12.137 15 10.3565 15 8.5V8H5.70705ZM8 14.5C6.49579 14.4981 5.047 13.9321 3.93992 12.9137C2.83284 11.8954 2.148 10.4988 2.02075 9H13.9792C13.852 10.4988 13.1672 11.8954 12.0601 12.9137C10.953 13.9321 9.50421 14.4981 8 14.5Z" fill="#1DA1F2"/>
<path d="M11 4.5C10.7331 4.50041 10.4679 4.54352 10.2146 4.6277C9.84279 4.12454 9.35846 3.7153 8.8003 3.43268C8.24215 3.15006 7.62563 3.00189 7 3C6.11131 2.99741 5.24747 3.29321 4.5469 3.84L2.20705 1.5L1.5 2.20705L4.525 5.2324L4.8785 4.87865C5.15644 4.59917 5.48706 4.3776 5.85122 4.22678C6.21538 4.07596 6.60584 3.99888 7 4C7.45048 4.00129 7.89493 4.10368 8.30057 4.29961C8.70621 4.49555 9.0627 4.78004 9.34375 5.1321C9.23705 5.22533 9.13837 5.32735 9.04875 5.4371C8.90845 5.61308 8.73023 5.7551 8.52737 5.85257C8.32451 5.95004 8.10226 6.00043 7.8772 6H6V7H7.8772C8.25208 7.00077 8.62229 6.91688 8.96022 6.75459C9.29815 6.59231 9.59508 6.35581 9.82885 6.06275C10.023 5.82008 10.2878 5.64374 10.5866 5.55808C10.8854 5.47242 11.2034 5.48168 11.4966 5.58458C11.7899 5.68749 12.044 5.87895 12.2237 6.13251C12.4035 6.38607 12.5 6.6892 12.5 7H13.5C13.4992 6.3372 13.2356 5.70177 12.7669 5.2331C12.2982 4.76442 11.6628 4.50078 11 4.5Z" fill="#1DA1F2"/>
</svg>
