<svg width="16" height="17" viewBox="0 0 16 17" fill="none" xmlns="http://www.w3.org/2000/svg">
<rect width="16" height="16" transform="translate(0 0.5)" fill="white" fill-opacity="0.01" style="mix-blend-mode:multiply"/>
<path d="M8.00001 9.5C7.50555 9.5 7.0222 9.35338 6.61108 9.07867C6.19996 8.80397 5.87953 8.41352 5.69031 7.95671C5.50109 7.49989 5.45158 6.99723 5.54804 6.51227C5.64451 6.02732 5.88261 5.58186 6.23224 5.23223C6.58187 4.8826 7.02733 4.6445 7.51228 4.54804C7.99723 4.45157 8.4999 4.50108 8.95671 4.6903C9.41353 4.87952 9.80398 5.19995 10.0787 5.61107C10.3534 6.0222 10.5 6.50555 10.5 7C10.4993 7.66281 10.2356 8.29826 9.76694 8.76693C9.29826 9.23561 8.66282 9.49925 8.00001 9.5ZM8.00001 5.5C7.70333 5.5 7.41332 5.58797 7.16665 5.7528C6.91998 5.91762 6.72772 6.15189 6.61419 6.42597C6.50065 6.70006 6.47095 7.00166 6.52883 7.29264C6.58671 7.58361 6.72957 7.85088 6.93934 8.06066C7.14912 8.27044 7.4164 8.4133 7.70737 8.47118C7.99834 8.52906 8.29994 8.49935 8.57403 8.38582C8.84812 8.27229 9.08239 8.08003 9.24721 7.83336C9.41203 7.58668 9.50001 7.29667 9.50001 7C9.49957 6.60231 9.34139 6.22103 9.06018 5.93982C8.77897 5.65861 8.3977 5.50044 8.00001 5.5Z" fill="#1DA1F2"/>
<path d="M8.00001 15.5L3.78226 10.5257C3.75831 10.4971 3.60816 10.2999 3.60816 10.2999C2.88761 9.35084 2.49832 8.1916 2.50001 7C2.50001 5.54131 3.07947 4.14236 4.11092 3.11091C5.14237 2.07946 6.54131 1.5 8.00001 1.5C9.4587 1.5 10.8576 2.07946 11.8891 3.11091C12.9205 4.14236 13.5 5.54131 13.5 7C13.5018 8.19111 13.1128 9.34991 12.3926 10.2986L12.3919 10.2999C12.3919 10.2999 12.2419 10.4971 12.2195 10.5236L8.00001 15.5ZM4.40626 9.6975C4.40626 9.6975 4.52296 9.8516 4.54956 9.8847L8.00001 13.9539L11.455 9.87895C11.477 9.85135 11.5944 9.6961 11.5944 9.6961C12.183 8.92064 12.5012 7.97356 12.5 7C12.5 5.80653 12.0259 4.66193 11.182 3.81802C10.3381 2.97411 9.19348 2.5 8.00001 2.5C6.80653 2.5 5.66194 2.97411 4.81802 3.81802C3.97411 4.66193 3.50001 5.80653 3.50001 7C3.4989 7.97409 3.81725 8.92167 4.40626 9.6975Z" fill="#1DA1F2"/>
</svg>
