<svg width="20" height="20" viewBox="0 0 20 20" fill="none" xmlns="http://www.w3.org/2000/svg">
<rect width="20" height="20" fill="white" fill-opacity="0.01" style="mix-blend-mode:multiply"/>
<path d="M9.99999 11.25C9.38192 11.25 8.77774 11.0667 8.26383 10.7233C7.74993 10.38 7.34939 9.8919 7.11287 9.32089C6.87634 8.74987 6.81446 8.12153 6.93504 7.51534C7.05562 6.90915 7.35324 6.35233 7.79028 5.91529C8.22732 5.47825 8.78414 5.18062 9.39033 5.06005C9.99652 4.93947 10.6249 5.00135 11.1959 5.23788C11.7669 5.4744 12.255 5.87494 12.5983 6.38884C12.9417 6.90275 13.125 7.50693 13.125 8.125C13.124 8.95351 12.7945 9.74782 12.2087 10.3337C11.6228 10.9195 10.8285 11.2491 9.99999 11.25ZM9.99999 6.25C9.62915 6.25 9.26664 6.35997 8.9583 6.56599C8.64995 6.77202 8.40963 7.06486 8.26772 7.40747C8.1258 7.75008 8.08867 8.12708 8.16102 8.49079C8.23337 8.85451 8.41194 9.1886 8.67417 9.45083C8.93639 9.71305 9.27048 9.89163 9.6342 9.96397C9.99791 10.0363 10.3749 9.99919 10.7175 9.85727C11.0601 9.71536 11.353 9.47504 11.559 9.16669C11.765 8.85835 11.875 8.49584 11.875 8.125C11.8744 7.62789 11.6767 7.15129 11.3252 6.79978C10.9737 6.44827 10.4971 6.25055 9.99999 6.25Z" fill="white"/>
<path d="M9.99999 18.75L4.7278 12.5321C4.69787 12.4964 4.51018 12.2499 4.51018 12.2499C3.60949 11.0636 3.12288 9.6145 3.12499 8.125C3.12499 6.30164 3.84932 4.55295 5.13863 3.26364C6.42794 1.97433 8.17663 1.25 9.99999 1.25C11.8234 1.25 13.572 1.97433 14.8614 3.26364C16.1507 4.55295 16.875 6.30164 16.875 8.125C16.8772 9.61389 16.3909 11.0624 15.4907 12.2483L15.4898 12.2499C15.4898 12.2499 15.3023 12.4964 15.2744 12.5295L9.99999 18.75ZM5.5078 11.4969C5.5078 11.4969 5.65368 11.6895 5.68693 11.7309L9.99999 16.8174L14.3187 11.7237C14.3462 11.6892 14.493 11.4951 14.493 11.4951C15.2288 10.5258 15.6264 9.34195 15.625 8.125C15.625 6.63316 15.0324 5.20242 13.9775 4.14752C12.9226 3.09263 11.4918 2.5 9.99999 2.5C8.50815 2.5 7.07741 3.09263 6.02252 4.14752C4.96762 5.20242 4.37499 6.63316 4.37499 8.125C4.37361 9.34261 4.77154 10.5271 5.5078 11.4969Z" fill="white"/>
</svg>
