<svg width="20" height="20" viewBox="0 0 20 20" fill="none" xmlns="http://www.w3.org/2000/svg">
<path d="M18.125 17.2411L13.4049 12.521C14.5391 11.1594 15.1047 9.41288 14.984 7.64485C14.8633 5.87682 14.0656 4.22339 12.7569 3.02851C11.4482 1.83363 9.72919 1.1893 7.9575 1.22956C6.18581 1.26982 4.49785 1.99157 3.24476 3.24467C1.99166 4.49776 1.26991 6.18572 1.22965 7.95741C1.18939 9.7291 1.83372 11.4481 3.0286 12.7568C4.22348 14.0655 5.87692 14.8632 7.64494 14.9839C9.41297 15.1046 11.1595 14.539 12.5211 13.4048L17.2412 18.1249L18.125 17.2411ZM2.5 8.1249C2.5 7.01238 2.8299 5.92485 3.44798 4.99982C4.06606 4.07479 4.94457 3.35382 5.9724 2.92808C7.00024 2.50234 8.13124 2.39094 9.22238 2.60799C10.3135 2.82503 11.3158 3.36076 12.1025 4.14743C12.8891 4.9341 13.4249 5.93638 13.6419 7.02752C13.859 8.11866 13.7476 9.24966 13.3218 10.2775C12.8961 11.3053 12.1751 12.1838 11.2501 12.8019C10.3251 13.42 9.23752 13.7499 8.125 13.7499C6.63366 13.7483 5.20388 13.1551 4.14935 12.1006C3.09481 11.046 2.50165 9.61624 2.5 8.1249Z" fill="white"/>
</svg>
