<svg width="16" height="17" viewBox="0 0 16 17" fill="none" xmlns="http://www.w3.org/2000/svg">
<path d="M6 15.5H4.5V14.5H6V8.2832L4.2427 7.22875L4.7573 6.37135L6.51465 7.42555C6.66234 7.51485 6.78456 7.64065 6.86956 7.79086C6.95457 7.94106 6.99949 8.11061 7 8.2832V14.5C6.9997 14.7651 6.89424 15.0193 6.70677 15.2068C6.5193 15.3942 6.26512 15.4997 6 15.5Z" fill="#1DA1F2"/>
<path d="M11 15.5H9.5C9.23488 15.4997 8.98071 15.3942 8.79324 15.2068C8.60578 15.0193 8.50032 14.7651 8.5 14.5V9H11.5C11.7794 8.99998 12.0556 8.94146 12.311 8.82819C12.5663 8.71493 12.7951 8.54944 12.9826 8.34237C13.1702 8.13531 13.3122 7.89127 13.3997 7.62597C13.4872 7.36067 13.5181 7.07998 13.4905 6.802C13.4236 6.29623 13.1727 5.83285 12.7857 5.50042C12.3987 5.168 11.9027 4.98984 11.3926 5H10.6008L10.5125 4.6105C10.226 3.34805 9.0154 2.5 7.5 2.5C6.92772 2.50182 6.36781 2.66675 5.88593 2.97545C5.40404 3.28416 5.02015 3.72384 4.77925 4.24295L4.625 4.57655L4.1935 4.5194C4.12953 4.50841 4.06487 4.50193 4 4.5C3.46957 4.5 2.96086 4.71071 2.58579 5.08579C2.21071 5.46086 2 5.96957 2 6.5C2 7.03043 2.21071 7.53914 2.58579 7.91421C2.96086 8.28929 3.46957 8.5 4 8.5V9.5C3.20435 9.5 2.44129 9.18393 1.87868 8.62132C1.31607 8.05871 1 7.29565 1 6.5C1 5.70435 1.31607 4.94129 1.87868 4.37868C2.44129 3.81607 3.20435 3.5 4 3.5C4.0132 3.5 4.02625 3.5 4.0393 3.5005C4.39107 2.89375 4.89569 2.38977 5.50289 2.03877C6.11008 1.68777 6.79866 1.50201 7.5 1.5C9.3394 1.5 10.8462 2.4888 11.3758 4H11.3926C12.151 3.99153 12.8859 4.26299 13.4567 4.76243C14.0274 5.26188 14.394 5.95425 14.4862 6.70705C14.5271 7.12375 14.4802 7.54438 14.3487 7.94188C14.2172 8.33939 14.0039 8.70497 13.7227 9.01512C13.4414 9.32528 13.0983 9.57313 12.7155 9.74275C12.3328 9.91237 11.9187 10 11.5 10H9.5V14.5H11V15.5Z" fill="#1DA1F2"/>
</svg>
