<svg width="12" height="14" viewBox="0 0 12 14" fill="none" xmlns="http://www.w3.org/2000/svg">
<path fill-rule="evenodd" clip-rule="evenodd" d="M4.0285 1.96504C4.59454 0.0117335 7.40546 0.0117335 7.9715 1.96504C8.15227 2.58883 8.80302 2.95883 9.44195 2.80111C11.4427 2.30722 12.8481 4.70457 11.4135 6.16399C10.9553 6.63006 10.9553 7.37007 11.4135 7.83613C12.8481 9.29555 11.4427 11.6929 9.44195 11.199C8.80302 11.0413 8.15227 11.4113 7.9715 12.0351C7.40546 13.9884 4.59454 13.9884 4.0285 12.0351C3.84773 11.4113 3.19698 11.0413 2.55805 11.199C0.557326 11.6929 -0.848132 9.29555 0.58655 7.83613C1.04471 7.37007 1.04471 6.63006 0.58655 6.16399C-0.848131 4.70457 0.557326 2.30722 2.55805 2.80111C3.19698 2.95884 3.84773 2.58883 4.0285 1.96504ZM8.53117 5.62746C8.67784 5.45412 8.65406 5.19651 8.47806 5.05207C8.30205 4.90763 8.04047 4.93105 7.8938 5.10438L5.97804 7.36836C5.77295 7.61074 5.64701 7.75804 5.54325 7.85031C5.49514 7.8931 5.46659 7.91015 5.45291 7.91667C5.45013 7.918 5.44815 7.91879 5.4469 7.91925C5.44565 7.91879 5.44367 7.918 5.44089 7.91667C5.42721 7.91015 5.39867 7.8931 5.35055 7.85031C5.24679 7.75804 5.12085 7.61074 4.91576 7.36836L4.10624 6.4117C3.95957 6.23836 3.69798 6.21494 3.52198 6.35939C3.34597 6.50383 3.32219 6.76144 3.46886 6.93477L4.29605 7.91232C4.47773 8.12708 4.64151 8.32067 4.7945 8.45673C4.96096 8.60475 5.17063 8.73659 5.4469 8.73659C5.72318 8.73659 5.93284 8.60475 6.0993 8.45673C6.25229 8.32068 6.41607 8.12708 6.59775 7.91233L8.53117 5.62746Z" fill="#1DA1F2"/>
</svg>
